# Blender 4.5.2 LTS
# www.blender.org
mtllib torch.mtl
o Handle
v 0.015854 -0.144954 -0.015948
v -0.081908 0.143611 -0.032550
v 0.028619 -0.140630 -0.008167
v -0.055526 0.152549 -0.016468
v 0.028619 -0.140630 0.007395
v -0.055526 0.152549 0.015696
v 0.015854 -0.144954 0.015176
v -0.081908 0.143611 0.031779
v 0.003090 -0.149279 0.007395
v -0.108290 0.134673 0.015696
v 0.003090 -0.149279 -0.008167
v -0.108290 0.134673 -0.016468
vn 0.4882 0.1156 -0.8651
vn 0.9612 0.2759 -0.0000
vn 0.4882 0.1156 0.8651
vn -0.4579 -0.2049 0.8651
vn -0.3209 0.9471 -0.0000
vn -0.9309 -0.3652 -0.0000
vn -0.4579 -0.2049 -0.8651
vn 0.3209 -0.9471 -0.0000
vt 0.994205 0.607367
vt 0.005598 0.643861
vt 0.003643 0.608510
vt 0.993259 0.590263
vt 0.003643 0.537809
vt 0.993259 0.556056
vt 0.005598 0.502458
vt 0.994205 0.538952
vt 0.994205 0.456527
vt 0.005598 0.493021
vt 0.003643 0.457670
vt 0.993259 0.439423
vt 0.145045 0.280951
vt 0.109695 0.342180
vt 0.038993 0.342180
vt 0.003643 0.280951
vt 0.038993 0.219722
vt 0.109695 0.219722
vt 0.003643 0.386969
vt 0.993259 0.405215
vt 0.005598 0.351618
vt 0.994205 0.388112
vt 0.222898 0.312556
vt 0.205795 0.342180
vt 0.171587 0.342180
vt 0.154483 0.312556
vt 0.171587 0.282931
vt 0.205795 0.282931
s 0
usemtl Material.001
f 1/1/1 2/2/1 4/3/1 3/4/1
f 3/4/2 4/3/2 6/5/2 5/6/2
f 5/6/3 6/5/3 8/7/3 7/8/3
f 7/9/4 8/10/4 10/11/4 9/12/4
f 4/13/5 2/14/5 12/15/5 10/16/5 8/17/5 6/18/5
f 9/12/6 10/11/6 12/19/6 11/20/6
f 11/20/7 12/19/7 2/21/7 1/22/7
f 1/23/8 3/24/8 5/25/8 7/26/8 9/27/8 11/28/8
o Cylinder
v -0.079448 0.136352 -0.042044
v -0.105408 0.213129 -0.048845
v -0.045279 0.147928 -0.021215
v -0.065835 0.226536 -0.024722
v -0.045279 0.147928 0.020443
v -0.065729 0.226732 0.024695
v -0.079448 0.136352 0.041272
v -0.105302 0.213325 0.048818
v -0.113618 0.124775 0.020443
v -0.146120 0.199493 0.023508
v -0.113618 0.124775 -0.021215
v -0.146080 0.199503 -0.024748
v -0.161588 0.231077 0.024761
v -0.161548 0.231087 -0.023496
v -0.118885 0.252398 -0.052645
v -0.079312 0.265805 -0.028522
v -0.079646 0.273022 0.027970
v -0.119219 0.259615 0.052094
v -0.104833 0.275519 -0.044372
v -0.102871 0.281432 0.043153
v -0.170081 0.243248 0.001786
v -0.080385 0.139084 -0.038590
v -0.106369 0.213207 -0.044446
v -0.049040 0.149701 -0.019486
v -0.069169 0.225804 -0.021785
v -0.049043 0.149710 0.018731
v -0.069052 0.226017 0.021741
v -0.080370 0.139103 0.037829
v -0.106247 0.213425 0.044416
v -0.111725 0.128480 0.018719
v -0.142259 0.201320 0.022082
v -0.111733 0.128479 -0.019480
v -0.142232 0.201323 -0.023281
v -0.157631 0.233226 0.024764
v -0.157583 0.233222 -0.023492
v -0.121163 0.252145 -0.048769
v -0.081584 0.265535 -0.024644
v -0.081930 0.272795 0.024097
v -0.121504 0.259390 0.048220
v -0.107192 0.275580 -0.040537
v -0.105270 0.281671 0.039350
v -0.166391 0.245829 0.001790
vn 0.4957 0.0911 -0.8637
vn 0.9677 0.2521 -0.0017
vn 0.4981 0.0827 0.8631
vn -0.4509 -0.2337 0.8615
vn -0.9171 -0.3987 -0.0004
vn -0.4428 -0.2299 -0.8666
vn 0.3209 -0.9471 -0.0000
vn -0.8981 -0.4398 -0.0008
vn 0.4969 0.0870 -0.8634
vn 0.4965 0.0882 0.8635
vn 0.5238 -0.0136 -0.8517
vn 0.5328 -0.0532 0.8445
vn -0.8194 -0.5733 -0.0008
vn -0.4916 -0.1040 0.8646
vn -0.9670 -0.2547 0.0020
vn -0.4944 -0.0956 -0.8640
vn 0.4519 0.2315 -0.8615
vn 0.9223 0.3864 0.0002
vn 0.4434 0.2274 0.8670
vn -0.3207 0.9472 -0.0001
vn 0.9010 0.4338 0.0007
vn -0.4952 -0.0924 0.8639
vn -0.4952 -0.0928 -0.8638
vn -0.5236 0.0129 0.8519
vn -0.5325 0.0517 -0.8448
vn 0.8205 0.5717 0.0008
vn -0.2123 0.9772 -0.0038
vn -0.3802 0.9179 0.1134
vn -0.3741 0.9204 -0.1138
vn 0.1425 0.0854 -0.9861
vn 0.1687 0.0209 0.9854
vn 0.7181 0.2887 0.6333
vn -0.8696 -0.3505 -0.3477
vn -0.8851 -0.3068 0.3501
vn 0.7313 0.2490 -0.6349
vn 0.2542 0.9549 -0.1535
vn -0.4403 0.7108 0.5486
vn -0.7088 0.5727 -0.4119
vn 0.2558 0.9500 0.1793
vn -0.6527 0.6437 0.3996
vn -0.4500 0.7313 -0.5126
vt 0.501513 0.551512
vt 0.506349 0.234640
vt 0.569143 0.242811
vt 0.555732 0.558567
vt 0.187731 0.577308
vt 0.174965 0.261598
vt 0.301912 0.252990
vt 0.294753 0.570584
vt 0.363846 0.260776
vt 0.348230 0.577308
vt 0.595758 0.521863
vt 0.581530 0.205503
vt 0.709926 0.197034
vt 0.702774 0.514701
vt 0.772411 0.205355
vt 0.756793 0.521863
vt 0.394496 0.558567
vt 0.379952 0.242240
vt 0.581530 0.822454
vt 0.581530 0.594671
vt 0.647560 0.536909
vt 0.713591 0.706931
vt 0.713591 0.934715
vt 0.647560 0.992477
vt 0.716610 0.060118
vt 0.779094 0.068439
vt 0.508806 0.072214
vt 0.571599 0.080384
vt 0.308087 0.064437
vt 0.370022 0.072224
vt 0.543803 0.007523
vt 0.346359 0.007523
vt 0.754882 0.007523
s 0
usemtl Material
f 13/29/9 14/30/9 16/31/9 15/32/9
f 15/33/10 16/34/10 18/35/10 17/36/10
f 17/36/11 18/35/11 20/37/11 19/38/11
f 19/39/12 20/40/12 22/41/12 21/42/12
f 21/42/13 22/41/13 24/43/13 23/44/13
f 23/45/14 24/46/14 14/30/14 13/29/14
f 13/47/15 15/48/15 17/49/15 19/50/15 21/51/15 23/52/15
f 24/43/16 22/41/16 25/53/16 26/54/16
f 16/31/17 14/30/17 27/55/17 28/56/17
f 20/37/18 18/35/18 29/57/18 30/58/18
f 28/56/19 27/55/19 31/59/19
f 30/58/20 29/57/20 32/60/20
f 26/54/21 25/53/21 33/61/21
f 34/29/22 36/32/22 37/31/22 35/30/22
f 36/33/23 38/36/23 39/35/23 37/34/23
f 38/36/24 40/38/24 41/37/24 39/35/24
f 40/39/25 42/42/25 43/41/25 41/40/25
f 42/42/26 44/44/26 45/43/26 43/41/26
f 44/45/27 34/29/27 35/30/27 45/46/27
f 34/47/28 44/52/28 42/51/28 40/50/28 38/49/28 36/48/28
f 45/43/29 47/54/29 46/53/29 43/41/29
f 37/31/30 49/56/30 48/55/30 35/30/30
f 41/37/31 51/58/31 50/57/31 39/35/31
f 49/56/32 52/59/32 48/55/32
f 51/58/33 53/60/33 50/57/33
f 47/54/34 54/61/34 46/53/34
f 18/35/35 16/34/35 37/34/35 39/35/35
f 22/41/36 20/40/36 41/40/36 43/41/36
f 14/30/37 24/46/37 45/46/37 35/30/37
f 24/43/38 26/54/38 47/54/38 45/43/38
f 25/53/39 22/41/39 43/41/39 46/53/39
f 16/31/40 28/56/40 49/56/40 37/31/40
f 27/55/41 14/30/41 35/30/41 48/55/41
f 20/37/42 30/58/42 51/58/42 41/37/42
f 29/57/43 18/35/43 39/35/43 50/57/43
f 32/60/44 29/57/44 50/57/44 53/60/44
f 33/61/45 25/53/45 46/53/45 54/61/45
f 31/59/46 27/55/46 48/55/46 52/59/46
f 28/56/47 31/59/47 52/59/47 49/56/47
f 30/58/48 32/60/48 53/60/48 51/58/48
f 26/54/49 33/61/49 54/61/49 47/54/49
o Cylinder.001
v -0.038483 0.015435 -0.032706
v -0.052102 0.055635 -0.037818
v -0.011973 0.024416 -0.016546
v -0.021399 0.066037 -0.019102
v -0.011973 0.024416 0.015774
v -0.021399 0.066037 0.018330
v -0.038483 0.015435 0.031935
v -0.052102 0.055635 0.037046
v -0.064994 0.006453 0.015774
v -0.082805 0.045233 0.018330
v -0.064994 0.006453 -0.016546
v -0.082805 0.045233 -0.019102
v -0.040040 0.020031 -0.024081
v -0.054542 0.062835 -0.026625
v -0.020605 0.026616 -0.012233
v -0.033019 0.070127 -0.013505
v -0.020605 0.026616 0.011462
v -0.033019 0.070127 0.012734
v -0.040040 0.020031 0.023309
v -0.054542 0.062835 0.025854
v -0.059476 0.013447 0.011462
v -0.076064 0.055544 0.012734
v -0.059476 0.013447 -0.012233
v -0.076064 0.055544 -0.013505
vn 0.5043 0.0613 -0.8614
vn 0.9753 0.2209 -0.0000
vn 0.5043 0.0613 0.8614
vn -0.4377 -0.2578 0.8614
vn -0.9087 -0.4174 -0.0000
vn -0.4377 -0.2578 -0.8614
vn 0.3209 -0.9471 -0.0000
vn -0.4886 -0.1141 0.8650
vn -0.9616 -0.2744 -0.0000
vn -0.4886 -0.1141 -0.8650
vn 0.4574 0.2064 -0.8650
vn 0.9304 0.3666 -0.0000
vn 0.4574 0.2064 0.8650
vn -0.3209 0.9471 -0.0000
vn 0.0398 0.8443 -0.5345
vn 0.3320 0.9433 -0.0000
vn 0.0398 0.8443 0.5345
vn -0.5447 0.6462 0.5345
vn -0.8370 0.5472 -0.0000
vn -0.5447 0.6462 -0.5345
vt 0.510763 0.272678
vt 0.376851 0.289390
vt 0.377710 0.012572
vt 0.511505 0.033661
vt 0.336826 0.528420
vt 0.203145 0.566222
vt 0.201856 0.427809
vt 0.335714 0.408908
vt 0.201856 0.150985
vt 0.335714 0.169886
vt 0.203145 0.012572
vt 0.336826 0.050375
vt 0.346282 0.952743
vt 0.338048 0.645450
vt 0.458633 0.645450
vt 0.450400 0.952743
vt 0.511505 0.392204
vt 0.377710 0.427820
vt 0.528100 0.290264
vt 0.528100 0.068745
vt 0.592314 0.012572
vt 0.656528 0.177918
vt 0.656528 0.399437
vt 0.592314 0.455609
vt 0.321453 0.873033
vt 0.320638 0.960649
vt 0.178298 0.979467
vt 0.179201 0.882442
vt 0.753554 0.667795
vt 0.677222 0.667795
vt 0.673124 0.341228
vt 0.757652 0.341228
vt 0.592814 0.917992
vt 0.554644 0.919239
vt 0.559755 0.592748
vt 0.602024 0.591366
vt 0.478314 0.917992
vt 0.475229 0.591366
vt 0.320638 0.610184
vt 0.321453 0.697800
vt 0.179201 0.688391
vt 0.178298 0.591366
vt 0.673124 0.164328
vt 0.698313 0.012572
vt 0.748692 0.012572
vt 0.773881 0.164328
vt 0.748692 0.316084
vt 0.698313 0.316084
vt 0.353421 0.247619
vt 0.354023 0.053573
vt 0.821702 0.294269
vt 0.821702 0.476974
vt 0.790476 0.449658
vt 0.790476 0.321585
vt 0.178298 0.386422
vt 0.178298 0.192372
vt 0.712917 0.932676
vt 0.673124 0.692939
vt 0.696921 0.692939
vt 0.724815 0.860992
vt 0.356077 0.591366
vt 0.440605 0.591366
vt 0.790476 0.269125
vt 0.790476 0.012572
vt 0.812714 0.069832
vt 0.812714 0.249672
s 0
usemtl Material
f 55/62/50 56/63/50 58/64/50 57/65/50
f 57/66/51 58/67/51 60/68/51 59/69/51
f 59/69/52 60/68/52 62/70/52 61/71/52
f 61/71/53 62/70/53 64/72/53 63/73/53
f 63/74/54 64/75/54 66/76/54 65/77/54
f 65/78/55 66/79/55 56/63/55 55/62/55
f 55/80/56 57/81/56 59/82/56 61/83/56 63/84/56 65/85/56
f 67/86/57 69/87/57 70/88/57 68/89/57
f 69/90/58 71/91/58 72/92/58 70/93/58
f 71/94/59 73/95/59 74/96/59 72/97/59
f 73/95/60 75/98/60 76/99/60 74/96/60
f 75/100/61 77/101/61 78/102/61 76/103/61
f 77/101/62 67/86/62 68/89/62 78/102/62
f 67/104/63 77/105/63 75/106/63 73/107/63 71/108/63 69/109/63
f 58/64/64 56/63/64 68/110/64 70/111/64
f 60/112/65 58/113/65 70/114/65 72/115/65
f 62/70/66 60/68/66 72/116/66 74/117/66
f 64/118/67 62/119/67 74/120/67 76/121/67
f 66/76/68 64/75/68 76/122/68 78/123/68
f 56/124/69 66/125/69 78/126/69 68/127/69
o Handle.001
v 0.072897 0.047735 -0.003885
v -0.028370 0.047035 -0.009404
v 0.072866 0.052214 -0.001299
v -0.028434 0.056293 -0.004058
v 0.072866 0.052214 0.003873
v -0.028434 0.056293 0.006633
v 0.072897 0.047735 0.006460
v -0.028370 0.047035 0.011978
v 0.072928 0.043255 0.003873
v -0.028306 0.037777 0.006633
v 0.072928 0.043255 -0.001299
v -0.028306 0.037777 -0.004058
vn 0.0437 0.4998 -0.8651
vn 0.0402 0.9992 -0.0000
vn 0.0437 0.4998 0.8651
vn 0.0506 -0.4991 0.8651
vn -1.0000 -0.0069 -0.0000
vn 0.0540 -0.9985 -0.0000
vn 0.0506 -0.4991 -0.8651
vn 1.0000 0.0069 -0.0000
vt 0.197200 0.995281
vt 0.173114 0.006674
vt 0.196446 0.004719
vt 0.208489 0.994335
vt 0.243109 0.004719
vt 0.231066 0.994335
vt 0.266440 0.006674
vt 0.242354 0.995281
vt 0.296755 0.995281
vt 0.272669 0.006674
vt 0.296000 0.004719
vt 0.308043 0.994335
vt 0.401003 0.203276
vt 0.372224 0.129172
vt 0.372224 0.029894
vt 0.401003 0.004719
vt 0.429781 0.078822
vt 0.429781 0.178101
vt 0.342663 0.004719
vt 0.330620 0.994335
vt 0.365995 0.006674
vt 0.341909 0.995281
vt 0.372224 0.272928
vt 0.372224 0.224894
vt 0.386148 0.212713
vt 0.400072 0.248567
vt 0.400072 0.296601
vt 0.386148 0.308782
s 0
usemtl Material
f 79/128/70 80/129/70 82/130/70 81/131/70
f 81/131/71 82/130/71 84/132/71 83/133/71
f 83/133/72 84/132/72 86/134/72 85/135/72
f 85/136/73 86/137/73 88/138/73 87/139/73
f 82/140/74 80/141/74 90/142/74 88/143/74 86/144/74 84/145/74
f 87/139/75 88/138/75 90/146/75 89/147/75
f 89/147/76 90/146/76 80/148/76 79/149/76
f 79/150/77 81/151/77 83/152/77 85/153/77 87/154/77 89/155/77
o Plane
v 0.074431 0.095592 0.032465
v 0.073955 0.006429 0.024750
v 0.074431 0.095592 -0.031864
v 0.073955 0.006429 -0.024149
v 0.069571 0.088931 0.027027
v 0.074431 0.095592 0.032465
v 0.069166 0.013142 0.020469
v 0.073955 0.006429 0.024750
v 0.074431 0.095592 -0.031864
v 0.069571 0.088931 -0.026426
v 0.069166 0.013142 -0.019869
v 0.073955 0.006429 -0.024149
v 0.139354 0.095501 -0.031864
v 0.139354 0.095501 0.032465
v 0.138878 0.006338 0.024750
v 0.138878 0.006338 -0.024149
vn -0.0001 -0.0862 -0.9963
vn -0.8078 0.5894 -0.0000
vn -0.7086 -0.0571 0.7033
vn -0.8141 -0.5807 -0.0000
vn -0.7086 -0.0571 -0.7033
vn 1.0000 -0.0053 -0.0000
vn -1.0000 0.0053 -0.0000
vn 0.0005 0.0862 -0.9963
vn 0.0053 1.0000 -0.0000
vn 0.0005 0.0862 0.9963
vn -0.0001 -0.0862 0.9963
vn -0.0014 -1.0000 -0.0000
vn 0.0014 1.0000 -0.0000
vt 0.758997 0.006514
vt 0.490634 0.919463
vt 0.726413 0.919463
vt 0.750399 0.993486
vt 0.466648 0.993486
vt 0.697488 0.080537
vt 0.716370 0.006514
vt 0.519559 0.080537
vt 0.500677 0.006514
vt 0.458050 0.006514
vt 0.424021 0.993486
vt 0.208328 0.993486
vt 0.174299 0.006514
s 0
usemtl Material
f 94/156/78 93/156/78 103/156/78 106/156/78
f 100/157/79 95/158/79 96/159/79 99/160/79
f 95/158/80 97/161/80 98/162/80 96/159/80
f 97/161/81 101/163/81 102/164/81 98/162/81
f 101/163/82 100/157/82 99/160/82 102/164/82
f 91/156/83 93/156/83 99/156/83 96/156/83
f 95/158/84 100/157/84 101/163/84 97/161/84
f 92/156/85 91/156/85 96/156/85 98/156/85
f 94/156/86 92/156/86 98/156/86 102/156/86
f 93/156/87 94/156/87 102/156/87 99/156/87
f 104/165/83 105/166/83 106/167/83 103/168/83
f 91/156/88 92/156/88 105/156/88 104/156/88
f 92/156/89 94/156/89 106/156/89 105/156/89
f 93/156/90 91/156/90 104/156/90 103/156/90
